<?xml version="1.0" standalone="no"?>
<!DOCTYPE svg PUBLIC "-//W3C//DTD SVG 20010904//EN"
 "http://www.w3.org/TR/2001/REC-SVG-20010904/DTD/svg10.dtd">
<svg version="1.0" xmlns="http://www.w3.org/2000/svg"
 width="700.000000pt" height="700.000000pt" viewBox="0 0 700.000000 700.000000"
 preserveAspectRatio="xMidYMid meet">
<metadata>
Created by potrace 1.14, written by Peter Selinger 2001-2017
</metadata>
<g transform="translate(0.000000,700.000000) scale(0.100000,-0.100000)"
fill="#000000" stroke="none">
<path d="M3335 6539 c-523 -25 -1061 -201 -1505 -493 -128 -85 -280 -200 -280
-214 0 -4 44 -59 98 -122 53 -64 111 -133 129 -154 l31 -38 84 65 c366 286
880 493 1322 533 l76 7 0 -1102 0 -1101 210 0 210 0 0 1100 0 1100 31 0 c61 0
246 -32 388 -66 358 -88 694 -250 979 -471 46 -36 87 -61 91 -57 4 5 56 68
116 139 60 72 116 138 124 149 15 17 13 21 -25 55 -23 20 -77 61 -120 93 -579
415 -1244 611 -1959 577z"/>
<path d="M1120 5402 c-268 -341 -459 -721 -565 -1124 -72 -276 -117 -671 -100
-890 l7 -98 2829 0 2829 0 0 -22 c0 -13 -9 -81 -19 -153 -55 -375 -192 -735
-399 -1050 -105 -161 -182 -256 -326 -404 -414 -424 -941 -686 -1551 -773
-142 -20 -523 -17 -680 6 -480 68 -927 262 -1300 563 -136 110 -342 324 -446
463 -84 112 -177 260 -235 370 l-29 55 -224 3 -223 2 6 -27 c4 -16 40 -93 80
-173 299 -598 765 -1065 1366 -1369 975 -494 2132 -424 3039 183 296 198 595
487 804 779 242 337 417 739 502 1152 47 229 73 537 60 715 l-7 100 -2829 0
-2829 0 0 23 c0 53 41 296 69 404 88 349 256 694 474 976 51 66 58 80 46 91
-11 10 -149 126 -289 242 -14 11 -22 5 -60 -44z"/>
<path d="M5682 5330 c-85 -71 -156 -131 -159 -134 -3 -3 21 -41 54 -83 79
-102 179 -256 240 -368 l48 -90 228 -3 c125 -1 227 -1 227 1 0 2 -20 51 -45
108 -97 221 -195 385 -350 584 -43 55 -80 103 -84 107 -3 4 -75 -51 -159 -122z"/>
<path d="M3300 3073 c-1 -17 195 -793 200 -793 5 0 201 776 200 793 0 4 -90 7
-200 7 -110 0 -200 -3 -200 -7z"/>
<path d="M3423 2005 c-33 -33 -35 -39 -30 -81 7 -68 42 -99 108 -99 45 0 54 4
80 33 43 47 41 102 -5 148 -28 28 -42 34 -76 34 -35 0 -48 -6 -77 -35z"/>
<path d="M3115 1806 c-115 -53 -140 -202 -49 -288 143 -133 360 31 274 206
-11 23 -36 52 -55 65 -44 30 -126 38 -170 17z"/>
<path d="M3754 1771 c-57 -26 -111 -92 -125 -156 -9 -43 -9 -61 5 -108 28 -98
108 -158 210 -159 179 -1 284 187 189 340 -56 91 -180 128 -279 83z"/>
<path d="M3462 1728 c-28 -28 -7 -78 33 -78 27 0 45 18 45 45 0 27 -18 45 -45
45 -12 0 -26 -5 -33 -12z"/>
<path d="M3375 1430 c-63 -42 -84 -132 -44 -197 67 -108 240 -74 263 52 9 48
-22 118 -66 145 -43 26 -113 26 -153 0z"/>
</g>
</svg>
