<svg xmlns="http://www.w3.org/2000/svg" viewBox="0 0 95 93.2"><defs><style>.a{fill:#025;}</style></defs><polygon class="a" points="22.5 44.1 2.9 53.1 22.5 62.1 42.1 53.1 22.5 44.1"/><polygon class="a" points="25 93.2 45.1 84 45.1 57.1 25 66.3 25 93.2"/><polygon class="a" points="0 84 20.1 93.2 20.1 66.3 0 57.1 0 84"/><polygon class="a" points="72.5 44.1 52.9 53.1 72.5 62.1 92.1 53.1 72.5 44.1"/><polygon class="a" points="74.9 66.3 74.9 93.2 95 84 95 57.1 74.9 66.3"/><polygon class="a" points="49.9 84 70 93.2 70 66.3 49.9 57.1 49.9 84"/><polygon class="a" points="25 39.9 45.1 49.1 45.1 22.2 25 13 25 39.9"/><polygon class="a" points="47.5 0 27.9 9 47.5 17.9 67.1 8.9 47.5 0"/><polygon class="a" points="49.9 49.1 70 39.9 70 13 49.9 22.2 49.9 49.1"/></svg>