<svg xmlns="http://www.w3.org/2000/svg" viewBox="0 0 78 68.6"><defs><style>.a{fill:#db3700;}</style></defs><path class="a" d="M27.2,20.1H10.1v12H27.2ZM12.1,29.2V22.1H22.9Z"/><path class="a" d="M61.5,1.7H26V0H0V60.9H1.3v7.7H78V1.7ZM26,3.7H59.5v4H26Zm0,6H59.5v5.1H34v-.2H26ZM14.8,66.6H3.3V60.9H14.8ZM7.2,41.8V16.6H32V41.8ZM63.1,66.6H16.8V60.9H63.1Zm8.1-3.8H65.1V58.9H60.4V54.2H37.2v4.7H26V43.8h8V21.7H46.8v8.9h2.1v8h2v-8h2V21.7H71.2Zm0-43.1H34V16.8H71.2Z"/><rect class="a" x="11.1" y="35.6" width="15.1" height="2"/></svg>