<svg xmlns="http://www.w3.org/2000/svg" viewBox="0 0 73.3 65.5"><defs><style>.a{fill:#025;}</style></defs><path class="a" d="M67.5,10H61.9V27.2h5.6ZM66.3,23.5H63.2v-2h3.1Zm0-3.1H63.2v-2h3.1Zm0-3.6H63.2v-2h3.1Zm0-3.1H63.2v-2h3.1Z"/><rect class="a" x="38.8" y="15.9" width="11" height="6.98"/><rect class="a" x="23.4" y="3.8" width="26.4" height="10.47"/><path class="a" d="M41.8,32.3h8.1V24.2H41.8Zm2-6.1h4.1v4.1H43.8Z"/><rect class="a" x="32.6" y="24.2" width="8.1" height="8.1"/><rect class="a" x="23.4" y="15.9" width="14.2" height="6.98"/><rect class="a" x="23.4" y="24.2" width="8.1" height="8.1"/><path class="a" d="M54.3,4.8V2.1A2.1,2.1,0,0,0,52.2,0H21.1A2.1,2.1,0,0,0,19,2.1h0V4.8H0V43.1H4.4V65.5H15l6.4-14H51.9l6.4,14H68.9V43.1h4.4V4.8ZM21,2.1c0-.1,0-.1.1-.1H52.2c.1,0,.1,0,.1.1V33.2H21ZM66.9,63.5H59.6l-6.4-14H20.1l-6.4,14H6.4V43.1H66.9Zm2.6-34.3H59.9V8h9.6Z"/></svg>