<svg xmlns="http://www.w3.org/2000/svg" viewBox="0 0 48 48"><defs><style>.a{fill:#025;}</style></defs><path class="a" d="M46,0H2A2,2,0,0,0,0,2V46a2,2,0,0,0,2,2H46a2,2,0,0,0,2-2V2A2,2,0,0,0,46,0ZM8.3,46.8a1.1,1.1,0,0,1-1-1,.9.9,0,0,1,1-1,.9.9,0,0,1,1,.8v.2A.9.9,0,0,1,8.3,46.8Zm4.2,0a.9.9,0,0,1-1-1,.9.9,0,0,1,.8-1h.2a.9.9,0,0,1,1,1A1.1,1.1,0,0,1,12.5,46.8Zm4.2,0a.9.9,0,0,1-1-1,.9.9,0,0,1,.8-1h.2a.9.9,0,0,1,1,1A1.1,1.1,0,0,1,16.7,46.8ZM34.3,43V33L25,34.7V43H23V34.7L13.7,33V43H5V14.8H19.8v3a.9.9,0,0,0,1,1h8a1.1,1.1,0,0,0,1-1V7.8a.9.9,0,0,0-1-1h-8a.9.9,0,0,0-1,.8v3.2H5V5H43v5.8H31.8v4H43V43Z"/><path class="a" d="M23.8,29l-9.9,2L24,33l10.1-2-9.9-2Z"/><path class="a" d="M22.8,23.3h1V25a.9.9,0,0,0,.8,1h.2a.9.9,0,0,0,1-1V23.3h1a.9.9,0,0,0,1-1V20.8h-6v1.5a.9.9,0,0,0,.8,1Z"/><path class="a" d="M46,0H2A2,2,0,0,0,0,2V46a2,2,0,0,0,2,2H46a2,2,0,0,0,2-2V2A2,2,0,0,0,46,0ZM8.3,46.8a1.1,1.1,0,0,1-1-1,.9.9,0,0,1,1-1,.9.9,0,0,1,1,.8v.2A.9.9,0,0,1,8.3,46.8Zm4.2,0a.9.9,0,0,1-1-1,.9.9,0,0,1,.8-1h.2a.9.9,0,0,1,1,1A1.1,1.1,0,0,1,12.5,46.8Zm4.2,0a.9.9,0,0,1-1-1,.9.9,0,0,1,.8-1h.2a.9.9,0,0,1,1,1A1.1,1.1,0,0,1,16.7,46.8ZM34.3,43V33L25,34.7V43H23V34.7L13.7,33V43H5V14.8H19.8v3a.9.9,0,0,0,1,1h8a1.1,1.1,0,0,0,1-1V7.8a.9.9,0,0,0-1-1h-8a.9.9,0,0,0-1,.8v3.2H5V5H43v5.8H31.8v4H43V43Z"/><path class="a" d="M23.8,29l-9.9,2L24,33l10.1-2-9.9-2Z"/><path class="a" d="M22.8,23.3h1V25a.9.9,0,0,0,.8,1h.2a.9.9,0,0,0,1-1V23.3h1a.9.9,0,0,0,1-1V20.8h-6v1.5a.9.9,0,0,0,.8,1Z"/></svg>