<svg xmlns="http://www.w3.org/2000/svg" viewBox="0 0 271 270.9"><defs><style>.a{fill:#db3700;}</style></defs><path class="a" d="M135.6,0C210.4,0,271,60.7,271,135.6a135.8,135.8,0,0,1-15.4,62.7,152.3,152.3,0,0,0-18.2-21.1A110.1,110.1,0,1,0,25.4,135a107.3,107.3,0,0,0,8.3,42.2,135.2,135.2,0,0,0-18.2,21.1A135.4,135.4,0,0,1,135.6,0ZM25.6,213.6a130.3,130.3,0,0,1,77.1-56.2,51.3,51.3,0,0,1-6.6-5.6,55.9,55.9,0,1,1,79.1-.3h-.1c0,.1-.1.1-.1.2a69.8,69.8,0,0,1-6.6,5.6,132,132,0,0,1,77.4,56.5,162.5,162.5,0,0,1-14.2,16.7l-3.5,3.3A105,105,0,0,0,86,190.9a103.9,103.9,0,0,0-38.4,35.2c-1.6,2.5-3.1,5-4.4,7.5l-3.2-3A123.3,123.3,0,0,1,25.6,213.6ZM157.1,90.8a30.4,30.4,0,1,0,8.9,21.5A30.4,30.4,0,0,0,157.1,90.8ZM215,245.2a135.4,135.4,0,0,1-158.8,0l1.9-3.5a85.4,85.4,0,0,1,12.4-17.5,110.1,110.1,0,0,0,130.2,0,95.8,95.8,0,0,1,12.5,17.7Z" transform="translate(0 0)"/></svg>