<svg xmlns="http://www.w3.org/2000/svg" viewBox="0 0 64.1 62.4"><defs><style>.a{fill:#025;}</style></defs><path class="a" d="M62,3.7H23v55H62a2,2,0,0,0,2.1-1.9h0V5.7A2.2,2.2,0,0,0,62,3.7Zm-25.6,48a.9.9,0,0,1-.8,1H29.2a.9.9,0,0,1-1-1V46.1a.9.9,0,0,1,1-1h6.2a.9.9,0,0,1,1,.8v5.8Zm0-9.9a.9.9,0,0,1-1,1H29.2a1.1,1.1,0,0,1-1-1V36.2a.9.9,0,0,1,1-1h6.2a.9.9,0,0,1,1,.8v5.8Zm0-9.9a.9.9,0,0,1-1,1H29.2a1.1,1.1,0,0,1-1-1V26.2a1.1,1.1,0,0,1,1-1h6.2a.9.9,0,0,1,1,1ZM47.7,51.7a.9.9,0,0,1-1,1H40.5a.9.9,0,0,1-1-.8V46.1a.9.9,0,0,1,.8-1h6.3a.9.9,0,0,1,1,.8v5.8Zm0-9.9a1.1,1.1,0,0,1-1,1H40.5a.9.9,0,0,1-1-1V36.2a.9.9,0,0,1,.8-1h6.3a.9.9,0,0,1,1,.8v5.8Zm0-9.9a1.1,1.1,0,0,1-1,1H40.5a.9.9,0,0,1-1-1V26.2a.9.9,0,0,1,1-1h6.1a.9.9,0,0,1,1,1ZM58.9,51.7a.9.9,0,0,1-1,1H51.7a.9.9,0,0,1-1-.8V46.1a.9.9,0,0,1,.8-1h6.4a.9.9,0,0,1,1,1Zm0-9.9a1.1,1.1,0,0,1-1,1H51.7a.9.9,0,0,1-1-1V36.2a.9.9,0,0,1,.8-1h6.4a.9.9,0,0,1,1,1Zm0-9.9a1.1,1.1,0,0,1-1,1H51.7a.9.9,0,0,1-1-1V26.2a.9.9,0,0,1,1-1h6.2a1.1,1.1,0,0,1,1,1Zm1.4-11.7a.9.9,0,0,1-1,1H27.8a1.1,1.1,0,0,1-1-1V11.7a.9.9,0,0,1,1-1H59.3a.9.9,0,0,1,1,1Z"/><path class="a" d="M3.5,3.7h-1A2.4,2.4,0,0,0,0,5.7v51a2.2,2.2,0,0,0,2.4,2H3.5Z"/><path class="a" d="M17,0H9.6A4.1,4.1,0,0,0,5.5,4.1h0V58.3a4.1,4.1,0,0,0,4.1,4.1H17a4.1,4.1,0,0,0,4.1-4.1h0V4.1A4.1,4.1,0,0,0,17,0Z"/><rect class="a" x="28.8" y="12.7" width="29.4" height="6.42"/><rect class="a" x="30" y="27" width="4.7" height="4.19"/><rect class="a" x="41.2" y="27" width="4.7" height="4.19"/><rect class="a" x="52.4" y="27" width="4.7" height="4.19"/><rect class="a" x="30" y="36.9" width="4.7" height="4.19"/><rect class="a" x="41.2" y="36.9" width="4.7" height="4.19"/><rect class="a" x="52.4" y="36.9" width="4.7" height="4.19"/><rect class="a" x="30" y="46.8" width="4.7" height="4.19"/><rect class="a" x="41.2" y="46.8" width="4.7" height="4.19"/><rect class="a" x="52.4" y="46.8" width="4.7" height="4.19"/></svg>