<svg xmlns="http://www.w3.org/2000/svg" viewBox="0 0 48 48"><defs><style>.a{fill:#025;}</style></defs><path class="a" d="M3,48H29a2.9,2.9,0,0,0,3-3V37H30v3H2V8H30v3h2V3a2.9,2.9,0,0,0-2.8-3H3A2.9,2.9,0,0,0,0,2.8V45A2.9,2.9,0,0,0,3,48Zm11-5h4a1,1,0,0,1,0,2H14a1,1,0,0,1,0-2ZM13,3h6a1.1,1.1,0,0,1,1,1,1.1,1.1,0,0,1-1,1H13a1.1,1.1,0,0,1-1-1A1.1,1.1,0,0,1,13,3Z"/><polygon class="a" points="20 33.6 29.9 23.6 20 14.4 20 33.6"/><polygon class="a" points="21.4 13 32.2 23 32.2 23 34 24.6 35.8 23 35.8 23 46.6 13 21.4 13"/><path class="a" d="M36.6,25l-1.9,1.7a1,1,0,0,1-1.4,0L31.4,25l-10,10H46.6Z"/><polygon class="a" points="48 33.6 48 14.4 38.1 23.6 48 33.6"/></svg>