<svg xmlns="http://www.w3.org/2000/svg" viewBox="0 0 724.9 1360.3"><defs><style>.a{fill:#db3700;}.b{fill:#025;}</style></defs><path class="a" d="M493,1360.3c-4.1-2.8-5.1-6.6-5.1-11.5.2-31.5,0-63,.2-94.5,0-4.2-1.1-5.1-5.2-5.1H201.5c-2,0-4,.1-6-.1-6-.7-8.5-3.5-8.5-9.5,0-45.5.1-91,0-136.4a10.1,10.1,0,0,1,2.7-7.2Q339.1,918.6,488.3,740.7c3.3-3.9,6.5-5.5,11.7-5.4,44.7.2,89.3.1,134,.1a54.6,54.6,0,0,1,7,.2c7.4,1.1,9.9,4.1,9.9,11.7q0,174.5-.1,348.9c0,5.4,1.6,6.3,6.5,6.3,18.4-.3,36.7-.2,55-.2,10,.1,12.6,2.8,12.6,12.8v121c0,10.8-2.5,13.2-13.1,13.2-18.5,0-37,.1-55.5-.1-4.2,0-5.5.7-5.5,5.3.2,30.5.1,61,.2,91.5,0,6-1.6,11.1-7.1,14.3Zm-6-410.9L356,1102.3H482.9c3.3,0,4.2-.9,4.1-4.1-.1-17.7,0-35.3,0-53Z" transform="translate(0 0)"/><path class="b" d="M484,140.3a285,285,0,0,0-40.7,10.2c-37,12.5-70,31.4-96.1,61-19.4,22.1-30.6,48.1-38.1,76a632.9,632.9,0,0,0-21.3,190.8c.3,6.7,1.9,6.2-6.3,5.8-45.7-2.5-91.2-2-136.3,7.3S63.9,524.8,33.9,559.1C21,573.8,16.4,592,12.1,610.4,8.4,626.5,5,642.6,3.7,659a6.8,6.8,0,0,1-1.3,3.9c-.4-3.6-.9-7.1-1.1-10.7-1.7-33-2.1-65.9.7-98.9,2.5-29.1,13.3-54.9,29.5-78.9,29-43,65.1-79.1,105.6-111.1,35.9-28.4,72.5-56,107.5-85.5,17.6-14.8,33.9-31,47.5-49.8,12.3-17.1,14.2-35.9,9.3-55.6-6.9-27.4-31.4-37.9-50.8-39.8-13.8-1.3-27.3.3-39.6,7.6-16.5,9.7-23.4,25.1-25,43.5-.8,10-1.9,19.9-2,29.9-.1,5.9-3.4,9.2-9.2,9.8H11.4c-7.5,0-10.6-2.6-10.2-10.2C2.9,172.5,8.4,132.4,24,94.3c7.9-19,20.7-33.9,37.2-46C92.9,25.2,128.6,12,167,5.5,210-1.8,253.2-1,296.4,3.2,326,6,355,11.8,382.7,22.8c46,18.3,74.9,53.2,94.3,97.3,1.4,3.2,2.6,6.5,3.7,9.8S482.8,136.6,484,140.3Z" transform="translate(0 0)"/><path class="b" d="M2.4,1021.6V699c4.5,6.7,10.3,5.4,15.8,5.4H170.6c9.5,0,13.2-3.6,13.4-13.2s-.5-19,.8-28.5c4-29.2,24.1-47.8,53.7-49.2,13.3-.6,26.3,1.3,38.4,7.2,17.2,8.4,25.6,23,28.1,41.5s-2,36.2-13.4,51.7c-16,22-35.6,40.6-57.2,56.9-41.4,31.3-82,63.7-122.2,96.6C74.8,898,42.2,932.9,19.4,976A172.9,172.9,0,0,0,2.4,1021.6Z" transform="translate(0 0)"/><path class="b" d="M467.8,444.2c1.2-34.7,1.7-66.2,6.1-97.4,2.8-19.6,7.7-38.5,18.2-55.6,8-13.2,18.5-23.8,34.4-26.7,23.1-4.3,41.4,4.4,55.7,22.3C594.4,302,600,320.1,602.9,339c9.1,57.7,9.7,115.8,6.3,173.9-1.6,26.3-4.1,52.5-11.2,78-4.1,14.6-12.2,26.9-23.3,37.1-21.2,19.2-50.9,18.4-71-2-14.8-15-22.3-33.8-25.6-54.2C470.9,528.5,469,484.8,467.8,444.2Z" transform="translate(0 0)"/><path class="a" d="M674.6,738h24.3v3.2h-10v12.7h10v3.2H674.6v-3.2H686V741.2H674.6Z" transform="translate(0 0)"/><path class="a" d="M674.6,763.1l24.3,9.4v3.4l-24.3,10v-3.7l7.3-2.8V769.2l-7.3-2.6Zm10,7.1v8.2l6.7-2.5,5.1-1.8a25.2,25.2,0,0,1-4.7-1.3Z" transform="translate(0 0)"/><path class="a" d="M674.6,791.8h24.3V801a32.6,32.6,0,0,1-.2,3.7,6.8,6.8,0,0,1-1.2,3,5.7,5.7,0,0,1-2.3,2,8.8,8.8,0,0,1-3.3.7,7.8,7.8,0,0,1-5.3-2c-1.4-1.3-2.1-3.7-2.1-7.1V795h-9.9Zm12.7,3.2v6.3q0,3.2,1.2,4.5a4.5,4.5,0,0,0,3.3,1.3,4.5,4.5,0,0,0,2.6-.8,3.5,3.5,0,0,0,1.4-2,11.5,11.5,0,0,0,.2-3V795Z" transform="translate(0 0)"/><path class="a" d="M674.6,817.8h24.3V827a31.2,31.2,0,0,1-.2,3.7,6.8,6.8,0,0,1-1.2,3,5.7,5.7,0,0,1-2.3,2,7.2,7.2,0,0,1-3.3.7,7.8,7.8,0,0,1-5.3-2c-1.4-1.3-2.1-3.7-2.1-7.1V821h-9.9Zm12.7,3.2v6.3q0,3.2,1.2,4.5a4.5,4.5,0,0,0,3.3,1.3,4.5,4.5,0,0,0,2.6-.8,3.5,3.5,0,0,0,1.4-2,11.5,11.5,0,0,0,.2-3V821Z" transform="translate(0 0)"/><path class="a" d="M674.6,850.7h10.3l14-9.4v3.9l-7.3,4.8-4.1,2.5,4.3,2.7,7.1,4.7v3.7l-14-9.7H674.6Z" transform="translate(0 0)"/><path class="a" d="M674.6,882h24.3v3.3l-19.1,12.8h19.1v3H674.6v-3.3l19.1-12.7H674.6Z" transform="translate(0 0)"/><path class="a" d="M674.6,910h24.3v17.6H696V913.2h-7.4v13.4h-2.9V913.2h-8.3v14.9h-2.8Z" transform="translate(0 0)"/><path class="a" d="M674.6,940.2l24.3-6.5V937L683,940.7l-5,1,4.5,1.1,16.4,4.7v3.8l-12.3,3.5a64.3,64.3,0,0,1-8.6,1.9l5.3,1.2,15.6,3.9V965l-24.3-6.7v-3.1l18.5-5.1,2.9-.8-2.9-.7-18.5-5.2Z" transform="translate(0 0)"/><path class="a" d="M674.6,990.3h10.3l14-9.3v3.9l-7.3,4.8-4.1,2.5,4.3,2.6,7.1,4.7v3.8l-14-9.7H674.6Z" transform="translate(0 0)"/><path class="a" d="M674.6,1009.6h24.3v17.6H696v-14.4h-7.4v13.5h-2.9v-13.5h-8.3v14.9h-2.8Z" transform="translate(0 0)"/><path class="a" d="M674.6,1032.8l24.3,9.4v3.5l-24.3,9.9v-3.7l7.3-2.8v-10.2l-7.3-2.6Zm10,7.1v8.2l6.7-2.5,5.1-1.8a25.2,25.2,0,0,1-4.7-1.3Z" transform="translate(0 0)"/><path class="a" d="M674.6,1061.6h24.3v10.8a15.4,15.4,0,0,1-.6,4.9,6.2,6.2,0,0,1-2.4,2.7,6.5,6.5,0,0,1-3.6,1,5.8,5.8,0,0,1-4.4-1.7,8.7,8.7,0,0,1-2.3-5.1,7.8,7.8,0,0,1-1.2,1.9,14.7,14.7,0,0,1-3.2,2.7l-6.6,4.2v-4l5-3.3a38.4,38.4,0,0,0,3.4-2.3,6,6,0,0,0,1.6-1.6,10.1,10.1,0,0,0,.7-1.5c0-.3.1-.9.1-1.8v-3.7H674.6Zm13.6,3.2v6.9a11.2,11.2,0,0,0,.4,3.5,4,4,0,0,0,1.5,1.9,4.3,4.3,0,0,0,2.2.6,3.6,3.6,0,0,0,2.8-1.2,5.8,5.8,0,0,0,1.1-4v-7.7Z" transform="translate(0 0)"/></svg>