<svg xmlns="http://www.w3.org/2000/svg" viewBox="0 0 898.3 727.7"><defs><style>.a{fill:#025;}.b{fill:#fff;}.c{fill:#db3700;}</style></defs><rect class="a" x="106.4" y="146.2" width="684" height="581.5" rx="130.3"/><path class="b" d="M223.8,547.6V536.5h27.4v22.8a59.7,59.7,0,0,1-13.9,6.8,49.7,49.7,0,0,1-14.3,1.8c-6.8,0-12.4-1.1-16.7-3.2a22.6,22.6,0,0,1-9.9-9.7,31.9,31.9,0,0,1,.3-30,24.5,24.5,0,0,1,11.3-9.8c3.9-1.7,9.1-2.6,15.7-2.6s11.1.5,14.2,1.6a18.4,18.4,0,0,1,7.8,5,20.9,20.9,0,0,1,4.7,8.5l-17.1,2.9a8.6,8.6,0,0,0-3.6-4.6,11.1,11.1,0,0,0-6.4-1.6c-3.9,0-7,1.2-9.3,3.7s-3.4,6.5-3.4,12,1.1,9.9,3.5,12.4,5.6,3.7,9.7,3.7a22.4,22.4,0,0,0,5.7-.8,34.2,34.2,0,0,0,6.2-2.7v-5.1Z" transform="translate(0 0)"/><path class="b" d="M261.6,513.5h47.5v11.4H279.4v8.5h27.5v10.9H279.4v10.6h30.5V567H261.6Z" transform="translate(0 0)"/><path class="b" d="M315.4,513.5h53.8v13.2h-18V567H333.5V526.7H315.4Z" transform="translate(0 0)"/><path class="b" d="M454.8,559.2l4.3,2.7,4.1,1.9-4.9,9.2a52.9,52.9,0,0,1-7.4-4,34.5,34.5,0,0,1-5-3.5,38.8,38.8,0,0,1-14.7,2.4c-8.7,0-15.6-2.1-20.6-6.3s-8.9-12.1-8.9-21.2,2.6-15.6,7.8-20.5,12.4-7.3,21.7-7.3,16.9,2.4,22.1,7.2,7.7,11.5,7.7,20.4S458.9,554.4,454.8,559.2Zm-13.6-8.5c1.4-2.3,2.1-5.9,2.1-10.6s-1.1-9.2-3.2-11.5a11.5,11.5,0,0,0-8.9-3.5,11.1,11.1,0,0,0-8.5,3.6c-2.2,2.3-3.3,6-3.3,11s1,9.9,3.2,12.3,5,3.5,8.8,3.5a19.5,19.5,0,0,0,3.4-.3,21.2,21.2,0,0,0-7.1-3.8l2.8-5.9a12,12,0,0,1,3.7,1l5.1,3Z" transform="translate(0 0)"/><path class="b" d="M507.8,513.5h17.7v31.9a27.4,27.4,0,0,1-1.6,8.9,20.6,20.6,0,0,1-5,7.4,18.1,18.1,0,0,1-7.1,4.4,36.7,36.7,0,0,1-12.3,1.8c-2.8,0-5.9-.2-9.2-.5a26.3,26.3,0,0,1-8.2-2.2,19.6,19.6,0,0,1-6.1-4.6,17.3,17.3,0,0,1-3.8-6.2,30.4,30.4,0,0,1-1.6-9V513.5h17.6v32.6a9.2,9.2,0,0,0,2.6,6.9,10.5,10.5,0,0,0,7.2,2.4q4.7,0,7.2-2.4a8.8,8.8,0,0,0,2.6-6.9Z" transform="translate(0 0)"/><path class="b" d="M535,540.3q0-13,7.8-20.4c5.2-4.9,12.4-7.3,21.7-7.3s16.9,2.4,22.1,7.2,7.7,11.4,7.7,20.1c0,6.2-1.1,11.3-3.4,15.3a24,24,0,0,1-9.8,9.4q-6.3,3.3-15.9,3.3c-6.4,0-11.8-.9-16-2.9a22.8,22.8,0,0,1-10.3-9.1C536.3,551.8,535,546.5,535,540.3Zm17.7.1c0,5.4,1,9.2,3.2,11.6a10.9,10.9,0,0,0,8.7,3.5c3.7,0,6.8-1.1,8.9-3.4s3.1-6.5,3.1-12.5-1.1-8.7-3.3-11a11.3,11.3,0,0,0-8.8-3.5,11.1,11.1,0,0,0-8.6,3.6c-2.2,2.3-3.2,6.2-3.2,11.7Z" transform="translate(0 0)"/><path class="b" d="M597.7,513.5h53.8v13.2h-18V567H615.8V526.7H597.7Z" transform="translate(0 0)"/><path class="b" d="M659.5,513.5h47.4v11.4H677.2v8.5h27.6v10.9H677.2v10.6h30.6V567H659.5Z" transform="translate(0 0)"/><rect class="b" x="152.8" y="223.9" width="592.6" height="252.71" rx="64.1"/><path class="b" d="M448.5,688.8a97.8,97.8,0,0,0,94.7-73.7,14.1,14.1,0,0,0-10-17.1,14.7,14.7,0,0,0-3.6-.4H367.3a14.3,14.3,0,0,0-14,14.1,19.7,19.7,0,0,0,.4,3.4A98.1,98.1,0,0,0,448.5,688.8Z" transform="translate(0 0)"/><path class="a" d="M898.3,389.6a97.9,97.9,0,0,0-73.7-94.7,14.1,14.1,0,0,0-17.1,10,13.4,13.4,0,0,0-.4,3.5V470.7a13.9,13.9,0,0,0,13.8,14h.2a13.4,13.4,0,0,0,3.5-.4A97.9,97.9,0,0,0,898.3,389.6Z" transform="translate(0 0)"/><path class="a" d="M73.7,294.9a97.7,97.7,0,0,0,0,189.4,14.1,14.1,0,0,0,17.1-9.9,15.7,15.7,0,0,0,.5-3.7V308.4a14.1,14.1,0,0,0-14.2-13.9A13.2,13.2,0,0,0,73.7,294.9Z" transform="translate(0 0)"/><path class="c" d="M260.7,355.7a1.8,1.8,0,0,0,1.7,1.9h.3a1.8,1.8,0,0,0,1.8-1.8h0a1.8,1.8,0,0,0-1.7-1.9h-.1a2,2,0,0,0-2,1.9h0m.6-8.7a1.8,1.8,0,0,0,1.6,2h.2a2,2,0,0,0,2-2h0a1.9,1.9,0,0,0-1.9-1.8h-.1a1.8,1.8,0,0,0-1.8,1.8m-8.9,22.7a1.8,1.8,0,0,1,1.5-1.9h.3a2,2,0,0,1,2,1.9h0a2.1,2.1,0,0,1-1.9,1.9h-.1a1.9,1.9,0,0,1-1.8-1.9M245,360a1.8,1.8,0,0,1,1.8-1.8,1.9,1.9,0,0,1,2,1.7h0a2.1,2.1,0,0,1-1.9,1.9h-.1A1.8,1.8,0,0,1,245,360h0m-11-8.6a1.9,1.9,0,0,1,2.2-1.5,2.1,2.1,0,0,1,1.5,1.4s.1.1,0,.1a2,2,0,0,1-1.3,2.4,1.9,1.9,0,0,1-2.3-1.3.4.4,0,0,1-.1-.3,1.1,1.1,0,0,1,0-.8m12.2-13.9a1.8,1.8,0,0,1,1.7-1.9h.2a1.9,1.9,0,0,1,2,1.8h0a2,2,0,0,1-2,2,2.1,2.1,0,0,1-1.9-2m-1.8,0a3.8,3.8,0,0,0,3.8,3.8h0a3.7,3.7,0,0,0,3.2-1.7h8.9a33.5,33.5,0,0,0-1.9,5.3H260a3.8,3.8,0,0,1,3.1-1.6,3.8,3.8,0,0,1,3.8,3.8h0a3.8,3.8,0,0,1-3.8,3.8h0a3.8,3.8,0,0,1-3.1-1.6H239a2,2,0,0,0-.9-.9,3.8,3.8,0,0,0-5.4.4h0a3.9,3.9,0,0,0,.5,5.4l.4.3a3.7,3.7,0,0,0,5.2-.6h0l.2-.3h20.3a4.4,4.4,0,0,1,3.2-1.7h.6a3.9,3.9,0,0,1,3.2,4.4,4,4,0,0,1-2.1,2.8,2.5,2.5,0,0,1-1.7.3,4.4,4.4,0,0,1-3.2-1.5H250a3.7,3.7,0,0,0-3.2-1.7,3.8,3.8,0,0,0,0,7.6h0A3.7,3.7,0,0,0,250,362h8.4a25.8,25.8,0,0,0,1.9,5.3h-2.9a4,4,0,0,0-3.2-1.6,3.8,3.8,0,0,0-3.8,3.8h0a3.4,3.4,0,0,0,.7,2.2,3.8,3.8,0,0,0,3.1,1.6,3.9,3.9,0,0,0,3.2-1.6h19.3a29.8,29.8,0,0,1-4.4-4.3,22.8,22.8,0,0,1,0-28,24.9,24.9,0,0,1,4.4-4.2H251.4a4,4,0,0,0-3.2-1.7,3.8,3.8,0,0,0-3.8,3.8h0M283.5,314a2.1,2.1,0,0,0-2.1,2.1h0v5.7h-1.1l-.9.2h-.2l-.7.3h-.2l-.8.3h0c-1.3.5-2.5,1.2-3.7,1.8l-4-3.9a2,2,0,0,0-2.8-.2h-.2l-9.2,9.2a1.8,1.8,0,0,0-.5.7h33a22.6,22.6,0,0,1,3.2,45.1H257.1l.5.7,9.2,9.3a2.1,2.1,0,0,0,2.9,0h.1l4-4,3.7,1.7h0l.8.3h.2l.7.3h.2l.9.3h1.1v5.8a2,2,0,0,0,2,2h13.2a2,2,0,0,0,2.1-1.9h0V385a40.3,40.3,0,0,0,7.7-3.2l3.9,4a2.2,2.2,0,0,0,2.9.1h.1l9.3-9.2a2.1,2.1,0,0,0,0-2.9h0l-4-4a34.5,34.5,0,0,0,3.1-7.7h5.7a2,2,0,0,0,2-2h0V347a2.2,2.2,0,0,0-2-2.1h-5.7a35.7,35.7,0,0,0-3.1-7.6l4-4a1.9,1.9,0,0,0,.1-2.7h-.1l-9.3-9.3a2.1,2.1,0,0,0-2.9-.1h-.1l-3.9,4a30.3,30.3,0,0,0-7.7-3.1v-5.7a2.1,2.1,0,0,0-2.1-2.1h0Z" transform="translate(0 0)"/><path class="c" d="M638,351.2a2.1,2.1,0,0,0-1.9-1.9h0a1.8,1.8,0,0,0-1.9,1.7h0a1.9,1.9,0,0,0,1.8,2h.1a1.9,1.9,0,0,0,1.9-1.8h0m-.6,8.6a1.8,1.8,0,0,0-1.8-1.8,1.9,1.9,0,0,0-2,1.7h0a2,2,0,0,0,2,2,1.9,1.9,0,0,0,1.8-1.9h0m8.9-22.6a1.8,1.8,0,0,1-1.7,1.9h-.1a2,2,0,0,1-.9-3.8h.9a1.8,1.8,0,0,1,1.8,1.8h0m7.4,9.7a2.1,2.1,0,0,1-1.9,1.9h0a2,2,0,0,1-2.4-1.5h0a2,2,0,0,1,1.5-2.4h1a2,2,0,0,1,1.8,2m11.1,8.6a1.9,1.9,0,0,1-1.8,1.9h-.1a2.1,2.1,0,0,1-1.9-1.9h0a1.8,1.8,0,0,1,1.7-1.9h.2a2.1,2.1,0,0,1,1.9,1.9h0m-12.3,13.9a1.9,1.9,0,0,1-1.8,2h0a2.1,2.1,0,0,1-2.1-1.9,2.1,2.1,0,0,1,1.9-2h.1a2.1,2.1,0,0,1,1.9,1.9h0m1.8,0a3.8,3.8,0,0,0-3.8-3.8,4,4,0,0,0-3.2,1.6h-8.9a25.8,25.8,0,0,0,1.9-5.3h-1.6a3.6,3.6,0,0,1-3.1,1.7,3.8,3.8,0,0,1-3.8-3.8,4,4,0,0,1,3.8-3.9h0a3.9,3.9,0,0,1,3.1,1.7h21.1a1.8,1.8,0,0,0,.8.9,3.6,3.6,0,0,0,5.1-.5h0c0-.1.1-.1.1-.2h.1a3.8,3.8,0,0,0-.8-5.3,3.4,3.4,0,0,0-2.2-.7,3.7,3.7,0,0,0-3.1,1.5H639.4a3.7,3.7,0,0,1-3.2,1.7h-.6a4.1,4.1,0,0,1-3.2-3.8,3.6,3.6,0,0,1,2.1-3.3,3.4,3.4,0,0,1,1.7-.5,4,4,0,0,1,3.2,1.7h9.3a4.4,4.4,0,0,0,3.2,1.7,3.9,3.9,0,0,0,3.2-4.5h0a3.5,3.5,0,0,0-3.8-3.1,3.4,3.4,0,0,0-2.6,1.5h-8.4a25,25,0,0,0-1.9-5.2h2.9a3.8,3.8,0,0,0,5.3,1h0a3.9,3.9,0,0,0,1.7-3.3,3.1,3.1,0,0,0-.7-2.1,3.6,3.6,0,0,0-3.1-1.7,4.4,4.4,0,0,0-3.2,1.7H622a22.6,22.6,0,0,1,9.2,18.2,21.6,21.6,0,0,1-4.8,14,30.5,30.5,0,0,1-4.4,4.4h25.3a4.5,4.5,0,0,0,3.2,1.6,3.8,3.8,0,0,0,3.8-3.7h0m-39.1,23.3a2.2,2.2,0,0,0,2.2-2.1V385h.1l.5-.2h.4l.9-.3h.2l.7-.2h.2l.8-.4h0a16.2,16.2,0,0,0,3.7-1.9l4,4a2.2,2.2,0,0,0,2.9.1h.1l9.2-9.2.5-.6h-33a22.7,22.7,0,0,1,0-45.3h33l-.5-.5-9.2-9.3a2.1,2.1,0,0,0-2.9-.1h-.1l-4,4a25.3,25.3,0,0,0-3.7-1.8h0l-.8-.4h-.2l-.7-.3h-.2l-.9-.3H618l-.5-.2h-.1v-5.6a2.1,2.1,0,0,0-2.1-2.1H602.1a2,2,0,0,0-2.1,1.9h0V322a29.9,29.9,0,0,0-7.6,3.2l-4-4a2.1,2.1,0,0,0-2.9-.1h-.1l-9.3,9.3a1.9,1.9,0,0,0-.1,2.7h.1l4,4a35.7,35.7,0,0,0-3.1,7.6h-5.7a2,2,0,0,0-2,2h0V360a1.9,1.9,0,0,0,1.7,2.1h6a33.7,33.7,0,0,0,3.1,7.6l-4,4a2.1,2.1,0,0,0,0,2.9h0l9.3,9.2a2.2,2.2,0,0,0,2.9.1h.1l4-4A29.6,29.6,0,0,0,600,385v5.6a2.3,2.3,0,0,0,2,2.2Z" transform="translate(0 0)"/><path class="a" d="M313.6,14a35.7,35.7,0,0,1,8,.9,51.3,51.3,0,0,1,7.8,2.7l7.2-12a50.5,50.5,0,0,0-52.9,4.2l9,10.8A36.3,36.3,0,0,1,313.6,14Z" transform="translate(0 0)"/><path class="a" d="M308.4,51a5.6,5.6,0,0,0,5.5,5.7h.1a5.8,5.8,0,0,0,1.5-11.5,3.8,3.8,0,0,0-1.5,0,5.6,5.6,0,0,0-5.6,5.6h0Zm2.9-.6a3.3,3.3,0,1,1,6.6.8.4.4,0,0,0-.1.3,3.2,3.2,0,0,1-2.7,2.7H314A3.3,3.3,0,0,1,311.3,50.4Z" transform="translate(0 0)"/><path class="a" d="M342,8.8l-7.1,12.1a36.6,36.6,0,0,1,14.2,37.6,34.5,34.5,0,0,1-4.9,11.9l11,8.6a47.9,47.9,0,0,0,7.6-17.3A50.6,50.6,0,0,0,342,8.8Z" transform="translate(0 0)"/><path class="a" d="M314,26a24.6,24.6,0,1,0,.2,0Zm8.5,24.8V51a8.4,8.4,0,1,1,0-.2Z" transform="translate(0 0)"/><path class="a" d="M336.3,79.2a37.5,37.5,0,0,1-22.7,7.9,31.5,31.5,0,0,1-8.1-1,36.6,36.6,0,0,1-28.1-40.5l-13.6-3.1a50.4,50.4,0,0,0,27.6,53.4v34.8h44.4V95.9a48.4,48.4,0,0,0,9.1-5.8,47,47,0,0,0,6.5-6.1l-11.1-8.6Z" transform="translate(0 0)"/><path class="a" d="M287.8,24.7l-8.9-10.8a49.6,49.6,0,0,0-13.7,22.4l13.6,3.2A37.6,37.6,0,0,1,287.8,24.7Z" transform="translate(0 0)"/><path class="a" d="M576.1,57.2a5.8,5.8,0,1,0,.2-11.6h-.2a5.9,5.9,0,0,0-5.7,5.7,5.8,5.8,0,0,0,5.7,5.9Zm-2.7-6.4a3.2,3.2,0,0,1,2.7-2.7,3.3,3.3,0,0,1,2.8,3.7h0a3.7,3.7,0,0,1-2.8,2.8A3.4,3.4,0,0,1,573.4,50.8Z" transform="translate(0 0)"/><path class="a" d="M575.6,14.5a44.5,44.5,0,0,1,8.1.8,36.3,36.3,0,0,1,7.8,2.8L598.7,6a51.4,51.4,0,0,0-11.9-4.3,50.8,50.8,0,0,0-41,8.6l9,10.7A36.8,36.8,0,0,1,575.6,14.5Z" transform="translate(0 0)"/><path class="a" d="M576.1,26.4a24.5,24.5,0,0,0-24.5,24.5h0a24.6,24.6,0,1,0,24.6-24.6h-.1Zm8.5,24.9a8.4,8.4,0,1,1-16.8,1.8h0V51.3a8.4,8.4,0,1,1,16.8,0Z" transform="translate(0 0)"/><path class="a" d="M604.3,9.4h-.2l-7.1,12A37,37,0,0,1,606.3,71l11.1,8.6A50.4,50.4,0,0,0,604.5,9.5h-.2Z" transform="translate(0 0)"/><path class="a" d="M598.3,79.6a36.2,36.2,0,0,1-22.6,7.8,37.1,37.1,0,0,1-8.1-.8A36.7,36.7,0,0,1,539.5,46l-13.7-3.1a50.5,50.5,0,0,0,27.6,53.3v34.5h44.5V96.2a47.4,47.4,0,0,0,9.1-5.6,63.5,63.5,0,0,0,6.5-6.2l-11.1-8.6A24.6,24.6,0,0,1,598.3,79.6Z" transform="translate(0 0)"/><path class="a" d="M549.9,25.1,541,14.3a50.5,50.5,0,0,0-13.7,22.5l13.6,3A34.5,34.5,0,0,1,549.9,25.1Z" transform="translate(0 0)"/></svg>