<?xml version="1.0" encoding="iso-8859-1"?>
<!DOCTYPE svg PUBLIC "-//W3C//DTD SVG 1.1//EN" "http://www.w3.org/Graphics/SVG/1.1/DTD/svg11.dtd">
<svg fill="#db3700" version="1.1" id="Capa_1" xmlns="http://www.w3.org/2000/svg" xmlns:xlink="http://www.w3.org/1999/xlink" 
	 width="800px" height="800px" viewBox="0 0 103.834 103.834"
	 xml:space="preserve">
<g>
	<g>
		<path d="M73.357,97.179c-5.611-0.169-12.44,4.313-14.412,6.655h18.974C77.919,103.834,78.963,97.337,73.357,97.179z"/>
		<path d="M36.594,97.179c-5.611,0.158-4.564,6.655-4.564,6.655H51C49.023,101.492,42.204,97.01,36.594,97.179z"/>
		<path d="M91.967,52.007c-1.688-2.7-4.387-3.325-7.857-2.078c-0.58,0.203-1.107,0.475-1.603,0.772
			c0.754-1.173,0.96-2.188,0.343-2.473c-0.844-0.391-2.737,0.414-3.592,2.272c-0.68,1.495-0.479,3.159,0.074,3.995
			c-0.18,0.68-0.18,1.381,0.053,2.029c0.854,2.405,6.139,2.7,9.619,1.461C92.463,56.736,93.307,54.169,91.967,52.007z"/>
		<path d="M75.988,56.975c0.586,1.381,1.572,2.404,3.175,2.404c0.312,0,0.517-0.164,0.786-0.227c-2.21-0.048-3.001-3.122-3.001-5.77
			c0-2.645,0.786-5.724,3.001-5.767c-0.27-0.068-0.475-0.227-0.786-0.227c-1.36,0-2.288,0.735-2.9,1.798h-6.19
			c-0.549,0.464-1.187,0.809-1.841,1.128c-0.237,0.119-0.475,0.243-0.723,0.335c-0.759,0.282-1.556,0.498-2.404,0.535
			c-0.116,0.707-0.327,1.413-0.591,2.104c-0.021,0.055-0.053,0.105-0.074,0.152c-0.269,0.673-0.59,1.337-0.991,1.959l0,0
			c-1.835,2.996-4.909,5.332-8.448,5.332c-3.478,0-6.499-2.252-8.353-5.115c-0.422-0.648-0.772-1.334-1.058-2.025
			c-0.04-0.087-0.076-0.161-0.113-0.248c-0.282-0.712-0.498-1.442-0.612-2.164c-0.912-0.045-1.753-0.309-2.571-0.628
			c-0.279-0.113-0.548-0.232-0.81-0.372c-2.526-1.339-4.319-3.884-4.453-6.905l-0.896-0.52c0-1.226-0.433-2.323-1.622-3.008
			c-0.269-0.15-0.527-0.114-0.789-0.19c1.891,1.142,1.036,4.203-0.29,6.497c-1.318,2.296-3.544,4.564-5.481,3.493
			c0.195,0.195,0.298,0.438,0.562,0.588c1.392,0.807,2.753,0.406,3.942-0.491l7.364,3.101l-11.826,28.4
			c0,1.351,2.603,2.584,6.755,3.533c0.596,2.089,3.159,3.924,6.995,5.221c2.84,4.019-3.256,6.476-1.482,6.476
			c6.827,0,11.422,7.689,13.057,6.866c1.332-0.675,1.601-7.625,1.659-10.241c0.063,2.61,0.327,9.566,1.655,10.241
			c1.635,0.833,6.233-6.866,13.058-6.866c1.771,0-4.324-2.457-1.477-6.476c3.823-1.297,6.392-3.122,6.987-5.21
			c4.182-0.949,6.803-2.184,6.803-3.544L71.717,56.437L75.988,56.975z M54.974,65.211c1.303,0,2.357,1.055,2.357,2.363
			c0,1.302-1.049,2.352-2.357,2.352c-1.305,0-2.359-1.05-2.359-2.352C52.614,66.266,53.674,65.211,54.974,65.211z M54.974,73.312
			c1.303,0,2.357,1.055,2.357,2.362c0,1.303-1.049,2.352-2.357,2.352c-1.305,0-2.359-1.049-2.359-2.352
			C52.614,74.366,53.674,73.312,54.974,73.312z M54.974,91.947c-0.01,0-0.185-0.053-0.311-0.1c0.105,0,0.2,0.01,0.311,0.01
			c0.111,0,0.206-0.01,0.312-0.01C55.158,91.895,54.984,91.947,54.974,91.947z M80.998,81.659
			c-1.645,1.813-10.483,4.224-26.003,4.224c-15.633,0-24.867-2.246-26.048-4.566c-0.433-0.865,0.783-3.564,1.603-3.871
			c0.82-0.306,13.577,4.219,24.445,4.219c10.868,0,23.746-4.861,24.49-4.234C80.229,78.058,81.431,81.18,80.998,81.659z"/>
		<circle cx="49.033" cy="32.962" r="1.988"/>
		<path d="M60.949,30.974c1.102,0,1.993,0.891,1.993,1.988c0,1.097-0.892,1.988-1.993,1.988c-1.098,0-1.983-0.891-1.983-1.988
			C58.966,31.865,59.852,30.974,60.949,30.974z"/>
		<path d="M40.303,38.069c-1.215,1.248-1.967,2.948-1.967,4.828c0,3.829,3.106,6.945,6.94,6.945c0.285,0,0.556-0.05,0.825-0.087
			c0,0.026,0,0.05,0,0.076c0,4.098,3.977,9.548,8.889,9.548c4.914,0,8.891-5.45,8.891-9.548c0-0.026,0-0.05,0-0.076
			c0.274,0.031,0.543,0.087,0.822,0.087c3.84,0,6.94-3.111,6.94-6.945c0-1.88-0.754-3.58-1.962-4.828
			c1.303-0.896,2.167-2.397,2.167-4.097c0-1.598-0.785-2.982-1.945-3.89c0.185-0.031,0.485-0.177,0.485-0.754
			c0-0.121,0.021-0.303,0.053-0.546c0.179-1.595,0.611-5.321-2.067-8.327c-0.38-0.438-0.833-0.828-1.318-1.194
			c-2.331-5.772-0.127-10.455,0.079-13.088c0.701,0.901,1.787,1.495,3.021,1.495c2.12,0,3.839-1.711,3.839-3.833
			C73.995,1.717,72.276,0,70.156,0s-3.839,1.717-3.839,3.834c0,0.134,0.031,0.258,0.042,0.393c-0.433-0.248-1.055-0.393-1.988-0.393
			c-6.465,0-17.687,5.777-20.914,15.061c-0.696,0.464-1.329,0.971-1.854,1.561c-2.685,3.006-2.247,6.732-2.062,8.327
			c0.032,0.237,0.053,0.425,0.053,0.546c0,0.161,0.024,0.285,0.061,0.388c0.082,0.2,0.248,0.319,0.448,0.351
			c-1.184,0.907-1.972,2.294-1.972,3.905C38.131,35.672,38.996,37.172,40.303,38.069z M54.995,47.421
			c-3.288,0-5.962-3.536-5.962-4.638c0-1.097,2.669-1.323,5.962-1.323c3.296,0,5.964,0.227,5.964,1.323
			C60.949,43.886,58.286,47.421,54.995,47.421z M66.645,39.337c-2.263,0.369-7.589-1.187-9.134-2.046
			c-0.454,0.715-1.408,1.01-2.516,1.01s-2.057-0.29-2.51-1.01c-1.551,0.859-6.88,2.41-9.142,2.041
			c-3.024-0.485-1.529-3.336-2.809-9.329c0.135-0.065,0.28-0.158,0.475-0.298c1.16-0.793,4.678-3.214,13.985-3.214
			s12.825,2.42,13.99,3.214c0.185,0.135,0.332,0.227,0.475,0.298C68.174,36.002,69.671,38.847,66.645,39.337z M63.501,14.655
			l0.944,0.536l-1.008,0.427l-0.205,1.062l-0.723-0.82l-1.07,0.124l0.564-0.933l-0.454-0.989l1.055,0.243l0.802-0.733L63.501,14.655
			z M61.371,6.479l0.548,0.126l0.411-0.379l0.048,0.562l0.485,0.276l-0.512,0.222l-0.116,0.543l-0.369-0.419l-0.554,0.063
			l0.29-0.475L61.371,6.479z M61.038,9.698l0.797,0.185l0.601-0.556l0.074,0.814l0.717,0.403l-0.759,0.327l-0.169,0.796
			l-0.538-0.615l-0.812,0.093l0.422-0.701L61.038,9.698z M56.957,7.28L57.5,7.404l0.411-0.379l0.053,0.556l0.485,0.277l-0.522,0.222
			l-0.11,0.546l-0.364-0.422l-0.554,0.063l0.29-0.48L56.957,7.28z M53.793,10.842l2.22,0.515l1.683-1.54l0.2,2.268l1.982,1.123
			l-2.104,0.892l-0.454,2.23l-1.492-1.717l-2.262,0.259l1.176-1.954L53.793,10.842z M49.964,12.469l0.8,0.182l0.604-0.551
			l0.071,0.817l0.717,0.403l-0.762,0.325l-0.155,0.799l-0.541-0.614l-0.814,0.089l0.422-0.701L49.964,12.469z M47.812,14.984
			l0.541,0.124l0.411-0.377l0.053,0.562l0.488,0.274l-0.52,0.221l-0.108,0.546l-0.367-0.422l-0.556,0.066l0.292-0.475L47.812,14.984
			z M42.35,21.112c2.278-2.563,6.539-3.865,12.646-3.865c6.112,0,10.367,1.302,12.651,3.865c2.378,2.679,1.982,6.093,1.813,7.552
			c0,0.053-0.011,0.105-0.021,0.155c-1.419-0.979-5.058-3.319-14.444-3.319c-9.384,0-13.022,2.341-14.444,3.319
			c-0.005-0.05-0.016-0.103-0.016-0.155C40.361,27.211,39.969,23.791,42.35,21.112z"/>
		<path d="M54.964,34.544c-0.994,0-1.841,0.604-2.205,1.463c0.541-0.622,1.309-1.031,2.194-1.031c0.912,0,1.692,0.448,2.235,1.107
			C56.846,35.187,55.981,34.544,54.964,34.544z"/>
		<path d="M24.048,21.816c0.288-0.129,0.493-0.217,0.596-0.282c0.053,0,0.095,0.005,0.146,0.005
			c0.772,0.913,5.389-0.841,8.503-0.037c1.535,0.396,1.087,3.261,0.828,4.772l3.736-1.316l-1.35-0.319
			c1.637-2.906-0.288-4.767-2.149-5.099c-3.364-0.588-5.961,1.653-8.517,1.616c0.789-0.448,1.69-1.438,2.397-2.732
			c1.131-2.085,1.329-4.158,0.448-4.635c-0.775-0.419-2.12,0.524-3.207,2.162c-0.071-0.211-0.129-0.417-0.216-0.628
			c-1.182-2.797-3.483-4.498-5.147-3.802c-1.661,0.704-2.057,3.538-0.881,6.336c0.596,1.424,1.487,2.558,2.437,3.238
			c-2.197-0.896-4.282-2.83-6.647-2.463c-2.458,0.385-2.732,4.05-3.763,3.895l0.562,3.024c2.31,0.042,2.381-3.86,4.69-4.143
			C19.745,21.022,22.023,22.739,24.048,21.816z M25.772,16.957c0.609-0.763,1.289-1.158,1.706-0.931
			c0.562,0.303,0.432,1.622-0.288,2.945c-0.556,1.012-1.29,1.727-1.862,1.867C25.933,19.937,26.094,18.515,25.772,16.957z
			 M24.644,20.519c-0.221-0.475-0.087-1.392,0.372-2.359C25.182,19.132,25.042,19.989,24.644,20.519z M20.836,18.56
			c-0.751-1.782-0.499-3.58,0.562-4.023c1.057-0.448,2.521,0.638,3.267,2.415c0.042,0.101,0.068,0.203,0.108,0.306
			c-0.691,1.498-0.886,2.9-0.53,3.628c-0.056,0.028-0.092,0.065-0.135,0.087c-0.124,0.05-0.261,0.082-0.39,0.092
			c-0.01,0-0.021,0.006-0.026,0.006C22.688,21.136,21.488,20.115,20.836,18.56z"/>
		<rect x="25.804" y="28.5" width="6.371" height="10.871"/>
		<rect x="16.876" y="28.5" width="6.384" height="10.871"/>
		<rect x="16.246" y="22.805" width="6.373" height="5.097"/>
		<rect x="26.447" y="22.805" width="6.37" height="5.097"/>
		<path d="M30.474,46.417c0.886-0.454,1.896-1.791,2.06-3.428c0.079-0.87-0.124-1.632-0.433-2.263h-2.463
			c-0.021,0.253-0.037,0.525-0.021,0.815c-0.153-0.28-0.369-0.546-0.562-0.815h-4.446h-0.155h-5.616
			c-0.108,1.149,0.34,2.489,1.516,3.876c2.389,2.813,7.114,5.202,9.057,3.549C29.936,47.698,30.286,47.092,30.474,46.417z"/>
	</g>
</g>
</svg>