<svg xmlns="http://www.w3.org/2000/svg" xmlns:xlink="http://www.w3.org/1999/xlink" viewBox="0 0 354.2 223.9"><defs><style>.a{fill:url(#a);}.b{fill:url(#b);}.c{fill:url(#c);}</style><linearGradient id="a" x1="295.64" y1="132.42" x2="637.07" y2="-17.58" gradientTransform="matrix(-0.54, 0.54, 0.57, 0.57, 422.44, -169.71)" gradientUnits="userSpaceOnUse"><stop offset="0" stop-color="maroon"/><stop offset="1" stop-color="#d40000"/></linearGradient><linearGradient id="b" x1="441.19" y1="56.11" x2="440.73" y2="163.25" gradientTransform="matrix(-0.54, 0.54, 0.57, 0.57, 422.44, -169.71)" gradientUnits="userSpaceOnUse"><stop offset="0" stop-color="#f9f9f9"/><stop offset="1" stop-color="#ccc"/></linearGradient><radialGradient id="c" cx="589.79" cy="-183.96" r="29.55" gradientTransform="matrix(-0.72, 0.72, 0.75, 0.75, 587.16, -164.98)" gradientUnits="userSpaceOnUse"><stop offset="0" stop-color="#ccc"/><stop offset="1" stop-color="#f2f2f2"/></radialGradient></defs><path class="a" d="M195.8,237.8c-18.3-48.4-27.8-70.6-61.8-110S41.9,89.6,15.9,129.1C73.5,42.5,118.6,21.2,160.8,18.2s94.9,9.4,180.7,72.3Z" transform="translate(6 -17.8)"/><path class="b" d="M345.7,100.8c10-29.9-11.7-63.9-39.5-67.4-3.9,9.9-6.1,20.2,4.7,32.6,0,0-32.7-5-38.7,4.6s9.4,29.6,9.4,29.6c-16.4-.3-36.5-2-50.5,11.5s-11.3,26.2-8.7,39.5c0,0-37.7-20-50-8.2s1,47.5,1,47.5c-12.2-4.6-10.5-6.6-22.4-6.9-6.1,21.5,16.3,58.7,47.3,58.2C223.1,229.8,330,132.9,345.7,100.8Z" transform="translate(6 -17.8)"/><path class="c" d="M2.5,99C14.3,87.3,33.7,87.7,46,100s12.6,31.7,1,43.4-31.2,11.4-43.6-1S-9.2,110.8,2.5,99Z" transform="translate(6 -17.8)"/></svg>