<svg xmlns="http://www.w3.org/2000/svg" viewBox="0 0 22 27"><defs><style>.a{fill:#db3700;}</style></defs><path class="a" d="M8.5,7.4a.5.5,0,0,0-.5.5v6.4a.5.5,0,0,0,1,0V7.9A.5.5,0,0,0,8.5,7.4Z" transform="translate(0 0)"/><path class="a" d="M10.2,5.4a.5.5,0,0,0-.5.5v7.4a.5.5,0,0,0,1,0V5.9A.5.5,0,0,0,10.2,5.4Z" transform="translate(0 0)"/><path class="a" d="M11.8,5.4a.5.5,0,0,0-.5.5v7.4a.5.5,0,0,0,1,0V5.9A.5.5,0,0,0,11.8,5.4Z" transform="translate(0 0)"/><path class="a" d="M13.5,7.4a.5.5,0,0,0-.5.5v6.4a.5.5,0,0,0,1,0V7.9A.5.5,0,0,0,13.5,7.4Z" transform="translate(0 0)"/><path class="a" d="M18,26H15.4l-.5-2H7.1l-.5,2H4a.5.5,0,0,0,0,1H18a.5.5,0,0,0,0-1Z" transform="translate(0 0)"/><path class="a" d="M20.5,7H18.1a7,7,0,0,0-7-7H11A7,7,0,0,0,3.9,6.9H1.5A1.5,1.5,0,0,0,0,8.4H0v13A1.5,1.5,0,0,0,1.4,23H20.5A1.5,1.5,0,0,0,22,21.5V8.5A1.5,1.5,0,0,0,20.5,7ZM4.9,6.9a6.1,6.1,0,0,1,12.2,0v1h-.6v-1a5.5,5.5,0,0,0-11,0v1H4.9ZM3.5,11.4V9.9a.9.9,0,0,1,.8-1H6.4v3.5H4.5a.9.9,0,0,1-1-.8h0ZM11,18.8a1.5,1.5,0,1,1,1.5-1.5A1.5,1.5,0,0,1,11,18.8Zm5.6-3.9a2.1,2.1,0,0,1-1.9,1.9H13.4a2.4,2.4,0,0,0-4.8,0H7.3a2.1,2.1,0,0,1-1.9-1.9V13.4H6.9a.5.5,0,0,0,.5-.5V8.4a.5.5,0,0,0-.5-.5H6.5v-1a4.5,4.5,0,0,1,9,0v1h-.4a.5.5,0,0,0-.5.5v4.5a.5.5,0,0,0,.5.5h1.5Zm1.9-3.5a.9.9,0,0,1-.8,1H15.6V8.9h1.9a.9.9,0,0,1,1,.8h0Z" transform="translate(0 0)"/></svg>