<svg xmlns="http://www.w3.org/2000/svg" viewBox="0 0 62.7 61.9"><defs><style>.a{fill:#025;}</style></defs><path class="a" d="M48.8,0H14.9a2.6,2.6,0,0,0-2.6,2.6h0v9.2a8.1,8.1,0,0,1,2.6,6,7.5,7.5,0,0,1-.4,2.6l2.3,1.3V6.7H46.9v2h4.5V2.6A2.6,2.6,0,0,0,48.8,0ZM29.4,4.4H27.2a.9.9,0,0,1-.8-.8.7.7,0,0,1,.7-.7h2.3a.7.7,0,0,1,.7.7h0A.8.8,0,0,1,29.4,4.4Zm7.1,0H31.4a.9.9,0,0,1-.8-.8.8.8,0,0,1,.8-.7h5.1c.4-.1.7.2.8.6h0A.9.9,0,0,1,36.5,4.4ZM12.3,24.3V39.5l4.5-2.6v-10Zm36.9,4.5L46.9,31V52.2H16.8V42.1l-2.3,1.4a6.7,6.7,0,0,1,.4,2.4,7.9,7.9,0,0,1-2.6,6v7.3a2.7,2.7,0,0,0,2.6,2.7H48.8a2.7,2.7,0,0,0,2.6-2.7V28.8ZM31.8,59.4a2.6,2.6,0,0,1-2.3-2.3,2.4,2.4,0,0,1,4.7,0A2.4,2.4,0,0,1,31.8,59.4Z"/><path class="a" d="M37.3,30.4a6.7,6.7,0,0,1-6.7,6.7h0A6.3,6.3,0,0,1,25.8,35L12.6,42.8a6.8,6.8,0,0,1,.8,3.1,6.8,6.8,0,1,1-1.6-4.3l13.1-7.8a5.9,5.9,0,0,1-1-3.4c0-.4.1-.8.1-1.2L11.7,22.3a6.8,6.8,0,0,1-5,2.2,6.7,6.7,0,1,1,6.7-6.7,7.2,7.2,0,0,1-.8,3.2l11.9,6.7a6.6,6.6,0,0,1,6.1-4A6.7,6.7,0,0,1,37.3,30.4Z"/><path class="a" d="M61.9,10.2H40.3a.7.7,0,0,0-.7.7h0V26.5c-.1.4.2.7.6.8h2.3l-.4,4.2a1.2,1.2,0,0,0,.4.8h.4l.5-.2,5.2-4.8H61.9a.9.9,0,0,0,.8-.8V10.9A.8.8,0,0,0,61.9,10.2ZM59.1,23.4H43.2c-.4.1-.7-.2-.8-.6h0a.9.9,0,0,1,.8-.8H59.1a.9.9,0,0,1,.8.8A.8.8,0,0,1,59.1,23.4Zm0-3.9H43.2c-.4.1-.7-.2-.8-.6v-.2a.7.7,0,0,1,.7-.7h16a.8.8,0,0,1,.8.7A.9.9,0,0,1,59.1,19.5Zm0-4H43.2c-.4.1-.7-.2-.8-.6h0a.9.9,0,0,1,.8-.8H59.1a.9.9,0,0,1,.8.8A.8.8,0,0,1,59.1,15.5Z"/></svg>