<svg xmlns="http://www.w3.org/2000/svg" viewBox="0 0 56 60"><defs><style>.a{fill:#025;}</style></defs><path class="a" d="M38,42a.9.9,0,0,0,1-.8h0V29a.9.9,0,0,0-.8-1H18a.9.9,0,0,0-1,.8h0V47a.9.9,0,0,0,.6.9H18a.9.9,0,0,0,.7-.3L24.4,42ZM24,32h8a1,1,0,0,1,0,2H24a.9.9,0,0,1-1-.8h0V33a.9.9,0,0,1,.8-1Zm-3,5a.9.9,0,0,1,.8-1H34a1,1,0,0,1,0,2H22a.9.9,0,0,1-1-.8Z"/><path class="a" d="M53.3,24H52V23C52,10.5,41,0,28,0S4,10.5,4,23v1H2.7A2.7,2.7,0,0,0,0,26.7H0V45.3A2.7,2.7,0,0,0,2.7,48h8.6A2.7,2.7,0,0,0,14,45.3h0V26.7A2.7,2.7,0,0,0,11.3,24H10V23c0-9.1,8.4-17,18-17s18,7.9,18,17v1H44.7A2.7,2.7,0,0,0,42,26.7h0V45.3A2.7,2.7,0,0,0,44.7,48H48v1a6,6,0,0,1-6,6H33.9A4.1,4.1,0,0,0,30,52H26a4,4,0,0,0,0,8h4a4.1,4.1,0,0,0,3.9-3H42a8,8,0,0,0,8-8V48h3.3A2.7,2.7,0,0,0,56,45.3h0V26.7A2.7,2.7,0,0,0,53.3,24ZM9,42H5a1,1,0,0,1,0-2H9a1,1,0,0,1,0,2Zm0-5H5a1,1,0,0,1,0-2H9a1,1,0,0,1,0,2Zm0-5H5a1,1,0,0,1,0-2H9a1,1,0,0,1,0,2ZM51,42H47a1,1,0,0,1,0-2h4a1,1,0,0,1,0,2Zm0-5H47a1,1,0,0,1,0-2h4a1,1,0,0,1,0,2Zm0-5H47a1,1,0,0,1,0-2h4a1,1,0,0,1,0,2Z"/></svg>