<svg xmlns="http://www.w3.org/2000/svg" viewBox="0 0 898.3 727.7"><defs><style>.a{fill:#025;}.b{fill:#fff;}.c{fill:#db3700;}</style></defs><rect class="a" x="106.4" y="146.2" width="684" height="581.5" rx="130.3"/><rect class="b" x="152.8" y="223.9" width="592.6" height="252.71" rx="64.1"/><path class="b" d="M448.5,688.8a97.9,97.9,0,0,0,94.7-73.7,14.1,14.1,0,0,0-10-17.1,14.7,14.7,0,0,0-3.6-.4H367.3a14.3,14.3,0,0,0-14,14.1,20.9,20.9,0,0,0,.4,3.4A98.1,98.1,0,0,0,448.5,688.8Z"/><path class="a" d="M898.3,389.6a97.9,97.9,0,0,0-73.7-94.7,14.1,14.1,0,0,0-17.1,10,13.4,13.4,0,0,0-.4,3.5V470.7a13.9,13.9,0,0,0,13.8,14h.2a13.4,13.4,0,0,0,3.5-.4A98,98,0,0,0,898.3,389.6Z"/><path class="a" d="M73.7,294.9a97.7,97.7,0,0,0,0,189.4,14.1,14.1,0,0,0,17.1-9.9,15.7,15.7,0,0,0,.5-3.7V308.4a14.1,14.1,0,0,0-14.2-13.9A13.2,13.2,0,0,0,73.7,294.9Z"/><path class="c" d="M260.7,355.7a1.8,1.8,0,0,0,1.7,1.9h.3a1.8,1.8,0,0,0,1.8-1.8h0a1.7,1.7,0,0,0-1.7-1.9h-.1a2,2,0,0,0-2,1.9h0m.6-8.7a1.9,1.9,0,0,0,1.6,2h.2a2,2,0,0,0,2-2h0a1.9,1.9,0,0,0-1.9-1.8h-.1a1.8,1.8,0,0,0-1.8,1.8m-8.9,22.7a1.7,1.7,0,0,1,1.5-1.9h.3a2,2,0,0,1,2,1.9h0a2.1,2.1,0,0,1-1.9,1.9h-.1a1.9,1.9,0,0,1-1.8-1.9M245,360a1.8,1.8,0,0,1,1.8-1.8,1.9,1.9,0,0,1,2,1.7h0a2.1,2.1,0,0,1-1.9,1.9h-.1A1.8,1.8,0,0,1,245,360h0m-11-8.6a1.9,1.9,0,0,1,2.2-1.5,1.9,1.9,0,0,1,1.5,1.4s.1.1,0,.1a2,2,0,0,1-1.3,2.4,2,2,0,0,1-2.3-1.3.4.4,0,0,1-.1-.3,1.1,1.1,0,0,1,0-.8m12.2-13.9a1.7,1.7,0,0,1,1.7-1.9h.2a1.9,1.9,0,0,1,2,1.8h0a2,2,0,0,1-2,2,2.1,2.1,0,0,1-1.9-2m-1.8,0a3.8,3.8,0,0,0,3.8,3.8h0a3.7,3.7,0,0,0,3.2-1.7h8.9a33.5,33.5,0,0,0-1.9,5.3H260a3.8,3.8,0,0,1,3.1-1.6,3.8,3.8,0,0,1,3.8,3.8h0a3.8,3.8,0,0,1-3.8,3.8h0a3.8,3.8,0,0,1-3.1-1.6H239a2,2,0,0,0-.9-.9,3.8,3.8,0,0,0-5.4.3h0a3.9,3.9,0,0,0,.5,5.4l.4.3a3.8,3.8,0,0,0,5.2-.6h0l.2-.3h20.3a4.1,4.1,0,0,1,3.2-1.7h.6a3.9,3.9,0,0,1,3.2,4.4,4,4,0,0,1-2.1,2.8,2.5,2.5,0,0,1-1.7.3,4.8,4.8,0,0,1-3.2-1.5H250a3.5,3.5,0,0,0-3.2-1.7,3.8,3.8,0,0,0,0,7.6h0A3.7,3.7,0,0,0,250,362h8.4a25.8,25.8,0,0,0,1.9,5.3h-2.9a4,4,0,0,0-3.2-1.6,3.8,3.8,0,0,0-3.8,3.8h0a3.6,3.6,0,0,0,.7,2.2,3.8,3.8,0,0,0,3.1,1.6,3.9,3.9,0,0,0,3.2-1.6h19.3a35.8,35.8,0,0,1-4.4-4.3,22.8,22.8,0,0,1,0-28,24.9,24.9,0,0,1,4.4-4.2H251.4a3.7,3.7,0,0,0-3.2-1.7,3.8,3.8,0,0,0-3.8,3.8h0M283.5,314a2.1,2.1,0,0,0-2.1,2.1h0v5.7h-1.1l-.9.2h-.2l-.7.3h-.2l-.8.3h0c-1.3.5-2.5,1.2-3.7,1.8l-4-3.9a1.9,1.9,0,0,0-2.8-.2h-.2l-9.2,9.2a1.8,1.8,0,0,0-.5.7h33a22.6,22.6,0,0,1,3.2,45.1H257.1l.5.7,9.2,9.3a2.3,2.3,0,0,0,2.9,0h.1l4-4,3.7,1.7h0l.8.3h.2l.7.3h.2l.9.3h1.1v5.8a2,2,0,0,0,2,2h13.2a2.1,2.1,0,0,0,2.1-1.9h0V385a43.1,43.1,0,0,0,7.7-3.2l3.9,4a2.2,2.2,0,0,0,2.9.1h.1l9.3-9.2a2.1,2.1,0,0,0,0-2.9h0l-4-4a38.8,38.8,0,0,0,3.1-7.7h5.7a2,2,0,0,0,2-2h0V347a2.2,2.2,0,0,0-2-2.1h-5.7a33.7,33.7,0,0,0-3.1-7.6l4-4a1.9,1.9,0,0,0,.1-2.7h-.1l-9.3-9.3a2.1,2.1,0,0,0-2.9-.1h-.1l-3.9,4a27,27,0,0,0-7.7-3.1v-5.7a2.1,2.1,0,0,0-2.1-2.1h0Z"/><path class="c" d="M638,351.2a2.1,2.1,0,0,0-1.9-1.9h0a1.8,1.8,0,0,0-1.9,1.7h0a1.9,1.9,0,0,0,1.8,2h.1a1.9,1.9,0,0,0,1.9-1.8h0m-.6,8.6a1.8,1.8,0,0,0-1.8-1.8,1.9,1.9,0,0,0-2,1.7h0a2,2,0,0,0,2,2,1.9,1.9,0,0,0,1.8-1.9h0m8.9-22.6a1.8,1.8,0,0,1-1.7,1.9h-.1a2,2,0,0,1-2-2,1.9,1.9,0,0,1,1.1-1.8h.9a1.8,1.8,0,0,1,1.8,1.8h0m7.4,9.7a2.1,2.1,0,0,1-1.9,1.9h0a2.1,2.1,0,0,1-2.4-1.5h0a1.9,1.9,0,0,1,1.5-2.4h1a2,2,0,0,1,1.8,2m11.1,8.6a1.9,1.9,0,0,1-1.8,1.9h-.1a2.1,2.1,0,0,1-1.9-1.9h0a1.7,1.7,0,0,1,1.7-1.9h.2a2.1,2.1,0,0,1,1.9,1.9h0m-12.3,13.9a1.9,1.9,0,0,1-1.8,2h0a2.2,2.2,0,0,1-2.1-1.9,2.1,2.1,0,0,1,1.9-2h.1a2.1,2.1,0,0,1,1.9,1.9h0m1.8,0a3.8,3.8,0,0,0-3.8-3.8,4,4,0,0,0-3.2,1.6h-8.9a25.8,25.8,0,0,0,1.9-5.3h-1.6a3.8,3.8,0,0,1-6.9-2.1,4,4,0,0,1,3.8-3.9h0a3.7,3.7,0,0,1,3.1,1.7h21.1a1.8,1.8,0,0,0,.8.9,3.7,3.7,0,0,0,5.1-.5h0c0-.1.1-.1.1-.2h.1a3.8,3.8,0,0,0-.8-5.3,2.9,2.9,0,0,0-2.2-.7,3.5,3.5,0,0,0-3.1,1.5H639.4a3.7,3.7,0,0,1-3.2,1.7h-.6a4.1,4.1,0,0,1-3.2-3.8,3.5,3.5,0,0,1,2.1-3.3,3.4,3.4,0,0,1,1.7-.5,3.7,3.7,0,0,1,3.2,1.7h9.3a4.4,4.4,0,0,0,3.2,1.7,3.9,3.9,0,0,0,3.2-4.5h0a3.5,3.5,0,0,0-3.8-3.1,3.1,3.1,0,0,0-2.6,1.5h-8.4a23.1,23.1,0,0,0-1.9-5.2h2.9a3.8,3.8,0,0,0,5.3,1h0a4,4,0,0,0,1.7-3.3,3.1,3.1,0,0,0-.7-2.1,3.6,3.6,0,0,0-3.1-1.7,4.1,4.1,0,0,0-3.2,1.7H622a22.5,22.5,0,0,1,9.2,18.2,21.6,21.6,0,0,1-4.8,14,30.5,30.5,0,0,1-4.4,4.4h25.3a4.9,4.9,0,0,0,3.2,1.6,3.8,3.8,0,0,0,3.8-3.7h0m-39.1,23.3a2.3,2.3,0,0,0,2.2-2.1V385h.1l.5-.2h.4l.9-.3h.2l.7-.2h.2l.8-.4h0a16.2,16.2,0,0,0,3.7-1.9l4,4a2.2,2.2,0,0,0,2.9.1h.1l9.2-9.2.5-.6h-33a22.7,22.7,0,0,1,0-45.3h33l-.5-.5-9.2-9.3a2.1,2.1,0,0,0-2.9-.1h-.1l-4,4a25.3,25.3,0,0,0-3.7-1.8h0l-.8-.4h-.2l-.7-.3h-.2l-.9-.3H618l-.5-.2h-.1v-5.6a2.1,2.1,0,0,0-2.1-2.1H602.1a2,2,0,0,0-2.1,1.9h0V322a29.9,29.9,0,0,0-7.6,3.2l-4-4a2.1,2.1,0,0,0-2.9-.1h-.1l-9.3,9.3a1.9,1.9,0,0,0-.1,2.7h.1l4,4a33.7,33.7,0,0,0-3.1,7.6h-5.7a2,2,0,0,0-2,2h0V360a2,2,0,0,0,1.7,2.1h6a35.7,35.7,0,0,0,3.1,7.6l-4,4a2.1,2.1,0,0,0,0,2.9h0l9.3,9.2a2.2,2.2,0,0,0,2.9.1h.1l4-4A33.7,33.7,0,0,0,600,385v5.6a2.3,2.3,0,0,0,2,2.2Z"/><path class="a" d="M313.6,14a35.7,35.7,0,0,1,8,.9,51.3,51.3,0,0,1,7.8,2.7l7.2-12a50.3,50.3,0,0,0-52.9,4.2l9,10.8A36.3,36.3,0,0,1,313.6,14Z"/><path class="a" d="M308.4,51a5.6,5.6,0,0,0,5.5,5.7h.1a5.9,5.9,0,0,0,6.4-5.2,5.7,5.7,0,0,0-4.9-6.3,3.8,3.8,0,0,0-1.5,0,5.6,5.6,0,0,0-5.6,5.6h0Zm2.9-.6a3.4,3.4,0,0,1,3.7-2.9,3.3,3.3,0,0,1,2.9,3.7.4.4,0,0,0-.1.3,3.2,3.2,0,0,1-2.7,2.7H314A3.3,3.3,0,0,1,311.3,50.4Z"/><path class="a" d="M342,8.8l-7.1,12.1a36.5,36.5,0,0,1,14.2,37.6,35.3,35.3,0,0,1-4.9,11.9l11,8.6a47.9,47.9,0,0,0,7.6-17.3A50.5,50.5,0,0,0,342,8.8Z"/><path class="a" d="M314,26a24.6,24.6,0,1,0,.2,0Zm8.5,24.8V51a8.4,8.4,0,0,1-16.8-.2,8.4,8.4,0,0,1,16.8,0Z"/><path class="a" d="M336.3,79.2a38.1,38.1,0,0,1-22.7,7.9,31.5,31.5,0,0,1-8.1-1,36.7,36.7,0,0,1-28.1-40.5l-13.6-3.1a50.4,50.4,0,0,0,27.6,53.4v34.8h44.4V95.9A53,53,0,0,0,351.4,84l-11.1-8.6Z"/><path class="a" d="M287.8,24.7l-8.9-10.8a49.6,49.6,0,0,0-13.7,22.4l13.6,3.2A37,37,0,0,1,287.8,24.7Z"/><path class="a" d="M576.1,57.2a5.9,5.9,0,0,0,5.9-5.7,5.7,5.7,0,0,0-5.7-5.9h-.2a5.9,5.9,0,0,0-5.7,5.7,5.8,5.8,0,0,0,5.7,5.9Zm-2.7-6.4a3.2,3.2,0,0,1,2.7-2.7,3.3,3.3,0,0,1,2.8,3.7h0a3.7,3.7,0,0,1-2.8,2.8A3.5,3.5,0,0,1,573.4,50.8Z"/><path class="a" d="M575.6,14.5a44.5,44.5,0,0,1,8.1.8,31.7,31.7,0,0,1,7.8,2.8L598.7,6a47.2,47.2,0,0,0-11.9-4.3,50.4,50.4,0,0,0-41,8.6l9,10.7A36.8,36.8,0,0,1,575.6,14.5Z"/><path class="a" d="M576.1,26.4a24.5,24.5,0,0,0-24.5,24.5h0a24.6,24.6,0,1,0,24.6-24.6h-.1Zm8.5,24.9a8.4,8.4,0,1,1-16.8,1.8h0V51.3a8.4,8.4,0,0,1,16.8-.1Z"/><path class="a" d="M604.3,9.4h-.2l-7.1,12A37,37,0,0,1,606.3,71l11.1,8.6A50.4,50.4,0,0,0,604.5,9.5h-.2Z"/><path class="a" d="M598.3,79.6a36.2,36.2,0,0,1-22.6,7.8,44.5,44.5,0,0,1-8.1-.8A36.8,36.8,0,0,1,539.5,46l-13.7-3.1a50.5,50.5,0,0,0,27.6,53.3v34.5h44.5V96.2a52.9,52.9,0,0,0,9.1-5.6,63.5,63.5,0,0,0,6.5-6.2l-11.1-8.6A24.6,24.6,0,0,1,598.3,79.6Z"/><path class="a" d="M549.9,25.1,541,14.3a49.9,49.9,0,0,0-13.7,22.5l13.6,3A33.9,33.9,0,0,1,549.9,25.1Z"/><path class="b" d="M206.6,510.1h16.3l5.9,31.2,8.7-31.2h16.3l8.7,31.2,5.9-31.2h16.3l-12.3,55.8h-17l-9.8-35.2-9.7,35.2H219Z"/><path class="b" d="M290.4,510.1h17.2v19.5h18.9V510.1h17.3v55.8H326.5V543.3H307.6v22.6H290.4Z"/><path class="b" d="M389.6,556.7H370l-2.7,9.2H349.7l21-55.8h18.8l21,55.8H392.4ZM386,544.6l-6.1-20.1-6.1,20.1Z"/><path class="b" d="M406.7,510.1h52.4v13.8H441.5v42H424.3v-42H406.7Z"/><path class="b" d="M463.9,547.4l16.4-1a12.8,12.8,0,0,0,2.2,6.1,9,9,0,0,0,7.6,3.4,8.6,8.6,0,0,0,5.7-1.7,5.4,5.4,0,0,0,2-4.1,4.9,4.9,0,0,0-1.9-3.8c-1.3-1.2-4.2-2.3-8.8-3.3-7.6-1.7-13-3.9-16.2-6.8a13.4,13.4,0,0,1-4.9-10.7,14.6,14.6,0,0,1,2.5-8.2,17.6,17.6,0,0,1,7.5-6c3.3-1.5,7.9-2.2,13.7-2.2s12.6,1.3,16.3,4,6,6.9,6.7,12.7l-16.2.9a9.3,9.3,0,0,0-2.8-5.5,8.8,8.8,0,0,0-5.7-1.7,6.5,6.5,0,0,0-4.5,1.3,3.9,3.9,0,0,0-1.5,3.1,3.1,3.1,0,0,0,1.2,2.4c.8.7,2.8,1.4,5.8,2,7.5,1.7,12.9,3.3,16.2,5a16.2,16.2,0,0,1,7.1,6.2,15.3,15.3,0,0,1,2.3,8.2,17.5,17.5,0,0,1-3,9.9,18.1,18.1,0,0,1-8.3,6.9,33.3,33.3,0,0,1-13.5,2.4c-9.5,0-16-1.9-19.7-5.5A22.1,22.1,0,0,1,463.9,547.4Z"/><path class="b" d="M557.6,556.7H538l-2.7,9.2H517.6l21-55.8h18.8l21,55.8h-18ZM554,544.6l-6.2-20.1-6.1,20.1Z"/><path class="b" d="M583.8,510.1h28.7c6.3,0,10.9,1.5,14,4.4s4.7,7.2,4.7,12.7-1.7,10-5.1,13.2-8.5,4.8-15.5,4.8h-9.4v20.7H583.8Zm17.4,23.8h4.2c3.3,0,5.7-.6,7-1.8a5.6,5.6,0,0,0,2-4.4,6.8,6.8,0,0,0-1.7-4.5q-1.8-1.8-6.6-1.8h-4.9Z"/><path class="b" d="M640.2,510.1h28.6c6.3,0,11,1.5,14.1,4.4s4.6,7.2,4.6,12.7-1.7,10-5,13.2-8.6,4.8-15.6,4.8h-9.4v20.7H640.2Zm17.3,23.8h4.2c3.3,0,5.7-.6,7-1.8a5.3,5.3,0,0,0,2-4.4,6.3,6.3,0,0,0-1.7-4.5q-1.8-1.8-6.6-1.8h-4.9Z"/></svg>